# xmcd CD database file
#
# Track frame offsets:
#	150
#	39786
#	45533
#	65557
#	75102
#	91172
#	125400
#	136027
#	144708
#	146260
#	178223
#
# Disc length: 2532 seconds
#
# Revision: 1
# Processed by: cddbd v1.5.2PL0 Copyright (c) Steve Scherf et al.
# Submitted via: CDex 1.51
#
DISCID=8809e20b
DTITLE=Surnatural Orchestra - Sans tête - on
DYEAR=2009
DGENRE=Jazz
TTITLE0=Eh, machine !
TTITLE1=Surnaturalandrive
TTITLE2=My name is Magne
TTITLE3=Sin capo
TTITLE4=Sude
TTITLE5=Domino
TTITLE6=Artsehcro larutanrus
TTITLE7=Magic banana
TTITLE8=Caressons les bourdons
TTITLE9=Groumlat
TTITLE10=Life is a biche
EXTD=YEAR: 2009
EXTT0=
EXTT1=
EXTT2=
EXTT3=
EXTT4=
EXTT5=
EXTT6=
EXTT7=
EXTT8=
EXTT9=
EXTT10=
PLAYORDER=
